<?xml version="1.0" standalone="no"?>
<!DOCTYPE svg PUBLIC "-//W3C//DTD SVG 1.1//EN" "http://www.w3.org/Graphics/SVG/1.1/DTD/svg11.dtd">
<svg xmlns="http://www.w3.org/2000/svg">
<metadata>Copyright (C) 2019 by original authors @ fontello.com</metadata>
<defs>
<font id="fontello" horiz-adv-x="1000" >
<font-face font-family="fontello" font-weight="400" font-stretch="normal" units-per-em="1000" ascent="850" descent="-150" />
<missing-glyph horiz-adv-x="1000" />
<glyph glyph-name="chat" unicode="&#xe800;" d="M142 437h185a14 14 0 0 1 0 29h-185a14 14 0 0 1 0-29z m370-81h-370a14 14 0 0 1 0-29h370a14 14 0 0 1 0 29z m0-110h-370a14 14 0 0 1 0-29h370a14 14 0 0 1 0 29z m470 603l-620 1a108 108 0 0 1-108-108v-93l-146 0a108 108 0 0 1-108-108v-384a108 108 0 0 1 108-107h110v-182a18 18 0 0 1 32-12l176 194 302 1a108 108 0 0 1 107 108v2l96-105a18 18 0 0 1 31 12v182h20a108 108 0 0 1 108 107v384a108 108 0 0 1-108 108z m-183-690a71 71 0 0 0-71-72l-310-1a18 18 0 0 1-14-6l-150-165v153a18 18 0 0 1-18 18h-128a71 71 0 0 0-72 71v384a72 72 0 0 0 72 72l164 0h0l456 1a71 71 0 0 0 71-71v-384z m254 198a71 71 0 0 0-71-71h-38a18 18 0 0 1-18-18v-153l-91 100v328a108 108 0 0 1-107 107l-437-1v93a71 71 0 0 0 71 72l620-2h0a71 71 0 0 0 71-71v-384z" horiz-adv-x="1090" />

<glyph glyph-name="check" unicode="&#xe801;" d="M1439 825a87 87 0 0 1-123 0l-765-766-403 403a87 87 0 0 1-123-122l465-465a87 87 0 0 1 122 0l827 827a87 87 0 0 1 0 123z" horiz-adv-x="1464" />

<glyph glyph-name="check-1" unicode="&#xe802;" d="M1083 842c-51 28-108-25-142-57-76-74-141-161-214-239-81-87-155-173-238-258-47-47-98-98-129-157-71 69-132 144-211 204-57 44-151 75-149-29 4-136 124-281 212-373 38-40 87-81 144-83 68-4 139 79 180 124 73 79 132 167 199 248 86 106 175 210 259 318 53 67 220 232 89 302z m-996-528a15 15 0 0 1-8-2 96 96 0 0 0-22 8h0q9 6 30-6z" horiz-adv-x="1132" />

<glyph glyph-name="clock" unicode="&#xe803;" d="M500 850a500 500 0 1 0-354-146 500 500 0 0 0 354 146z m254-473a27 27 0 0 0 0-54h-254a27 27 0 0 0-24 14l0 0h0l-1 1h0v0h0l0 1h0l0 1h0v0h0l-1 1h0l0 0h0v1h0l0 1h0v0h0l-1 1h0v1h0v1l0 0h0v1h0v0h0v1h0v0h0v1h0v1h0v326a27 27 0 0 0 27 26 27 27 0 0 0 27-26v-299z m61 288a445 445 0 1 1 130-315 444 444 0 0 1-130 315z" horiz-adv-x="1000" />

<glyph glyph-name="close" unicode="&#xe804;" d="M588 350l393 392a62 62 0 0 1-89 89l-392-393-392 393a62 62 0 1 1-89-89l393-392-393-392a62 62 0 1 1 89-89l392 393 392-393a62 62 0 0 1 89 89z" horiz-adv-x="999" />

<glyph glyph-name="close-1" unicode="&#xe805;" d="M1000 819l-31 31-469-469-469 469-31-31 469-469-469-469 31-31 469 469 469-469 31 31-469 469z" horiz-adv-x="1000" />

<glyph glyph-name="comments" unicode="&#xe806;" d="M751 171q115 49 182 133t67 182q0 99-67 183t-182 132q-115 49-251 49t-251-49q-115-48-182-132t-67-183q0-84 50-159t139-125q-7-17-15-32a180 180 0 0 0-17-27q-11-13-16-21t-19-20q-13-14-16-18c0 0-1-1-3-3s-3-4-3-4-1-1-3-4l-2-3-2-4a15 15 0 0 1-2-4 28 28 0 0 1 0-5 14 14 0 0 1 1-4 24 24 0 0 1 8-15 22 22 0 0 1 14-6h3a595 595 0 0 1 61 11 597 597 0 0 1 197 91 713 713 0 0 1 125-11q136 0 251 48z m-397 60l-32-22q-19-14-44-28l25 60-69 39q-68 40-105 94t-38 112q0 73 56 136t150 100a553 553 0 0 0 203 37 553 553 0 0 0 203-37q95-37 150-100t56-136q0-72-56-135t-150-100a553 553 0 0 0-203-37 615 615 0 0 0-109 10z m868-86a278 278 0 0 1 51 160q0 87-54 163t-144 126a366 366 0 0 0-32-288q-47-85-136-150a629 629 0 0 0-188-92 750 750 0 0 0-219-32q-21 0-62 3 142-94 335-94a714 714 0 0 1 125 11 567 567 0 0 1 258-102 21 21 0 0 1 16 5 26 26 0 0 1 9 16c0 2 0 4 1 4s0 2-1 5-1 4-1 4l-2 4a34 34 0 0 1-2 4 31 31 0 0 1-3 3c-1 1-2 2-3 4s-3 2-3 3q-4 4-16 18t-19 21q-6 7-16 20a180 180 0 0 0-18 27q-7 15-14 32 88 51 138 125z" horiz-adv-x="1273" />

<glyph glyph-name="couple" unicode="&#xe807;" d="M508 319l-111 33v45a180 180 0 0 1 72 132 52 52 0 0 1 19 89v107a89 89 0 0 1-39 73 70 70 0 0 1-68 52h-146a144 144 0 0 1-144-143v-89a52 52 0 0 1 19-89 180 180 0 0 1 73-132v-45l-133-39a70 70 0 0 1-50-68v-178a15 15 0 0 1 15-16h3v-186a15 15 0 0 1 31 0v186h61v-186a15 15 0 0 1 31 0v293a15 15 0 0 1-2 7l-37 73a15 15 0 1 1-27-14l35-70v-72h-79v163a39 39 0 0 0 28 38l56 17a180 180 0 0 1 350 0l34-10a15 15 0 0 1 9 29z m-367 223a15 15 0 0 1-16 15 21 21 0 0 0-21 22 21 21 0 0 0 11 18c0 0 0 0 1 0a21 21 0 0 0 9 3h24a34 34 0 0 1 32 23l10 32c37 1 151 6 215 38a15 15 0 1 1-13 27c-69-34-212-35-213-35a15 15 0 0 1-15-10l-14-42a3 3 0 0 0-2-2h-24c-1 0-2 0-3 0v76a113 113 0 0 0 113 112h146a39 39 0 0 0 39-33 15 15 0 0 1 8-11 58 58 0 0 0 29-50v-115a15 15 0 0 1 8-13 21 21 0 0 0 10-18 21 21 0 0 0-21-22 15 15 0 0 1-15-15 149 149 0 1 0-298 0z m225-163v-38a76 76 0 0 0-152 0c0 0 0 0 0 0v38a180 180 0 0 1 152 0z m21-151a149 149 0 0 0-243 81l41 12a107 107 0 0 1 210 0l40-12a149 149 0 0 0-48-81z m-51 271a15 15 0 0 1-22-2 30 30 0 0 0-49 0 15 15 0 0 1-24-20 61 61 0 0 1 97 0 15 15 0 0 1-2 22z m-119 95a15 15 0 0 1-16-15v-19a15 15 0 1 1 31 0v19a15 15 0 0 1-15 15z m146 0a15 15 0 0 1-16-15v-19a15 15 0 1 1 31 0v19a15 15 0 0 1-15 15z m467-186a15 15 0 0 1-22-3 30 30 0 0 0-49 0 15 15 0 0 1-24-19 61 61 0 0 1 97 0 15 15 0 0 1-2 22z m-120 95a15 15 0 0 1-15-16v-18a15 15 0 0 1 31 0v18a15 15 0 0 1-16 16z m147 0a15 15 0 0 1-16-16v-18a15 15 0 0 1 31 0v18a15 15 0 0 1-15 16z m154-317l-126 50a21 21 0 0 0-3 2c85 17 125 33 127 34a15 15 0 0 1 9 16c0 1-18 147-18 272a217 217 0 1 1-433 0c0-125-18-271-18-272a15 15 0 0 1 9-16c2-1 42-17 127-34a21 21 0 0 0-3-2l-126-50a70 70 0 0 1-44-65v-39h-42v72l35 70a15 15 0 0 1-28 14l-36-73a15 15 0 0 1-2-7v-293a15 15 0 1 1 31 0v186h42v-21a15 15 0 0 1 15-15h3v-150a15 15 0 1 1 31 0v150h42v-150a15 15 0 0 1 31 0v202a15 15 0 1 1-31 0v-21h-60v75a39 39 0 0 0 25 37l61 24a162 162 0 0 1 309 0l61-24a39 39 0 0 0 25-37v-75h-61v21a15 15 0 1 1-30 0v-202a15 15 0 1 1 30 0v150h43v-150a15 15 0 0 1 31 0v150h2a15 15 0 0 1 16 15v91a70 70 0 0 1-44 65z m-413 374a186 186 0 0 0 371 0c0-106 13-226 17-264a919 919 0 0 0-114-29v27a179 179 0 0 1 25 17 180 180 0 0 1 66 140c0 90-65 103-128 115-40 8-82 16-115 43a16 16 0 0 1-23-5 181 181 0 0 0-24-34c-12-14-32-31-54-31a52 52 0 0 1-21-4c0 8 0 17 0 25z m185-258a147 147 0 0 0-93 33 149 149 0 0 0-56 116 15 15 0 0 1-15 15 21 21 0 0 0 0 42c47 0 81 43 96 66 36-23 77-31 114-38 68-14 104-24 104-85a149 149 0 0 0-56-116 147 147 0 0 0-94-33z m-202-6c3 24 9 81 13 146a52 52 0 0 1 10-5 180 180 0 0 1 91-143v-27a918 918 0 0 0-114 29z m202-196a131 131 0 0 0-125 94l35 14a52 52 0 0 1 33 48v24a179 179 0 0 1 115 0v-24a52 52 0 0 1 33-48l35-14a131 131 0 0 0-126-94z" horiz-adv-x="1055" />

<glyph glyph-name="courthouse" unicode="&#xe808;" d="M964 377v20h37a17 17 0 0 1 17 17v56h20a17 17 0 0 1 17 17v54a17 17 0 0 1-9 15l-510 292a17 17 0 0 1-17 0l-510-292a17 17 0 0 1-9-15v-54a17 17 0 0 1 17-17h19v-56a17 17 0 0 1 18-17h37v-20a35 35 0 0 1 18-30v-317h-55a17 17 0 0 1-18-17v-56h-19a17 17 0 0 1-17-17v-73a17 17 0 0 1 17-17h1021a17 17 0 0 1 17 17v73a17 17 0 0 1-17 17h-20v56a17 17 0 0 1-17 17h-56v317a35 35 0 0 1 19 30z m-35 0a1 1 0 0 0-1-1h-73a1 1 0 0 0-1 1v20h75z m-166-347v317a35 35 0 0 1 18 30v20h39v-20a35 35 0 0 1 18-30v-317z m-73 0v312h39v-312z m-109 0v317a35 35 0 0 1 18 30v20h39v-20a35 35 0 0 1 18-30v-317z m-73 0v312h39v-312z m-109 0v317a35 35 0 0 1 18 30v20h39v-20a35 35 0 0 1 18-30v-317z m-73 0v312h39v-312z m-110 0v317a35 35 0 0 1 19 30v20h38v-20a35 35 0 0 1 19-30v-317z m167 367v-20a1 1 0 0 0-1-1h-73a1 1 0 0 0-1 1v20z m182 0v-20a1 1 0 0 0-1-1h-73a1 1 0 0 0-1 1v20z m182 0v-20a1 1 0 0 0-1-1h-73a1 1 0 0 0-1 1v20z m-713 134l493 282 494-282v-27h-987z m37-61h913v-39h-913z m130-73v-20a1 1 0 0 0-2-1h-73a1 1 0 0 0-1 1v20z m-57-55h38v-312h-38z m877-458h-987v39h987z m-37 73h-913v39h913z m-112 73v312h39v-312z" horiz-adv-x="1055" />

<glyph glyph-name="down-arrow" unicode="&#xe809;" d="M226 850a26 26 0 0 0 26-26l0-886 155 156a26 26 0 0 0 37-36l-200-200a26 26 0 0 0-36 0l-200 200a26 26 0 0 0 36 36l156-155 0 885a26 26 0 0 0 26 26z" horiz-adv-x="452" />

<glyph glyph-name="down-arrow-1" unicode="&#xe80a;" d="M1289 850v-320l-646-680-643 680v320l643-680z" horiz-adv-x="1289" />

<glyph glyph-name="down-arrow-2" unicode="&#xe80b;" d="M877-150a123 123 0 0 0-87 36l-754 754a123 123 0 0 0 174 174l667-667 668 667a123 123 0 0 0 173-174l-754-754a123 123 0 0 0-87-36z" horiz-adv-x="1754" />

<glyph glyph-name="down-arrow-3" unicode="&#xe80c;" d="M1000-150l-1000 1000 2000 0z" horiz-adv-x="2000" />

<glyph glyph-name="edit-document" unicode="&#xe80d;" d="M63-25v750a63 63 0 0 0 62 63h625a63 63 0 0 0 63-63v-367l62 62v305a125 125 0 0 1-125 125h-625a125 125 0 0 1-125-125v-750a125 125 0 0 1 125-125h344v62h-344a63 63 0 0 0-62 63z m625 688h-500v-63h500z m0-125h-500v-63h500z m0-125h-500v-63h500z m-500-188h250v63h-250z m794 63l-44 44a63 63 0 0 1-89 0l-268-269c-12-12-50-59-50-75l-31-138 138 31s63 38 75 50l269 268a63 63 0 0 1 0 89z m-291-335a311 311 0 0 0-30-21l-81 81a278 278 0 0 0 23 28l202 202 88-88z" horiz-adv-x="1000" />

<glyph glyph-name="employee" unicode="&#xe80e;" d="M659 40a15 15 0 0 1-14-15v-138a8 8 0 0 0-8-8h-79v289a15 15 0 0 1-29 0v-289h-159l46 51a26 26 0 0 1 6 21c0 0 0 0 0 0l-43 259 11 18c7-5 12-9 21-9a26 26 0 0 1 23 14h0l46 93 106-41c4-2 59-27 59-92v-99a15 15 0 0 1 29 0v99c0 86-74 118-77 119l0 0-176 68v41a137 137 0 0 1 52 90 63 63 0 0 1 38 15 62 62 0 0 1 6 88v55a182 182 0 1 1-363 0v-56a59 59 0 0 1-15-39 62 62 0 0 1 21-48 63 63 0 0 1 38-15 136 136 0 0 1 55-92v-39l-175-68-1 0c-3-1-77-33-77-119v-306a37 37 0 0 1 37-37h140a15 15 0 0 1 0 29h-32v289a15 15 0 0 1-29 0v-289h-79a8 8 0 0 0-8 8v306c0 66 56 90 59 92l106 41 46-93a26 26 0 0 1 23-14c9 0 14 4 21 9l11-18-43-259c0 0 0 0 0 0a26 26 0 0 1 6-21l46-51h-59a15 15 0 1 1 0-29h392a37 37 0 0 1 37 37v138a15 15 0 0 1-15 15z m-206 296l-43-86c-1 1-24 17-52 37l53 65z m-87-91l-11-17h-36l-11 17 29 21z m-84 130v28a149 149 0 0 1 55-11 138 138 0 0 1 55 12v-29l-55-68z m221 199a33 33 0 0 0-12-25 34 34 0 0 0-16-8v65a33 33 0 0 0 28-32z m-307-33a33 33 0 0 0-28 33c0 15 13 28 28 32z m1 94a72 72 0 0 1-14-3v36a152 152 0 1 0 305 0v-35a65 65 0 0 1-13 3c0 14 0 11-47 61a26 26 0 0 1-33 4c-51-33-113-50-171-46a26 26 0 0 1-27-20z m29-106v97c63-4 129 15 183 49 21-23 33-35 36-39v-107a108 108 0 0 0-108-108c-67 0-111 52-111 108z m38-279l-43 86 42 16 53-65c-27-20-49-35-52-37z m17-302l42 251h28l42-251-56-62z" horiz-adv-x="674" />

<glyph glyph-name="error" unicode="&#xe80f;" d="M1113 50l-445 736a133 133 0 0 1-228-1l-421-734a133 133 0 0 1 114-201h866c103 0 166 113 114 200z m-559-67a66 66 0 1 0 66 66 66 66 0 0 0-66-66z m67 331a67 67 0 0 0-67-66 66 66 0 0 0-66 66v265a66 66 0 0 0 66 67 67 67 0 0 0 67-67z" horiz-adv-x="1131" />

<glyph glyph-name="eye" unicode="&#xe810;" d="M1538 410q-121 199-327 319t-433 121q-228 0-434-121t-327-319a112 112 0 0 1 0-120q122-199 327-319t434-121q228 0 433 120a921 921 0 0 1 327 320 112 112 0 0 1 0 120z m-946 237q77 78 186 78a42 42 0 1 0 0-83 181 181 0 0 1-181-181 42 42 0 1 0-83 0q0 109 78 186z m563-580a727 727 0 0 0-754 0q-174 105-290 283 132 205 331 306a379 379 0 0 1-53-195q0-160 114-275t275-114q160 0 275 114t114 275a379 379 0 0 1-53 195q199-101 331-306-116-178-290-283z" horiz-adv-x="1556" />

<glyph glyph-name="facebook" unicode="&#xe811;" d="M520 850l-129 0c-146 0-240-97-240-246v-114h-131a20 20 0 0 1-20-20v-164a20 20 0 0 1 20-21h131v-415a20 20 0 0 1 20-20h170a20 20 0 0 1 21 20v415h152a20 20 0 0 1 21 21l0 164a20 20 0 0 1-21 20h-152v97c0 46 11 69 71 69l87 0a20 20 0 0 1 21 21v152a20 20 0 0 1-21 21z" horiz-adv-x="541" />

<glyph glyph-name="graduation-cap" unicode="&#xe812;" d="M1271 577l-524 256c-45 23-122 23-167 0l-536-256c-38-18-44-43-44-57s6-38 44-57l43-21v-241a74 74 0 0 1-46-68 75 75 0 0 1 45-68l-68-215h190l-68 215a73 73 0 0 1-1 136v215l79-39v-313a24 24 0 0 1 5-14c7-9 147-200 433-200s426 193 432 200a24 24 0 0 1 5 14v311l178 88c37 18 43 43 43 57-1 14-6 39-43 57z m-226-506c-24-30-154-174-389-174s-364 144-388 174v285l312-149c22-11 52-17 82-17 32 0 62 6 85 18l298 146z m205 434l-181-89a17 17 0 0 1-17-9l-326-158c-32-17-94-17-127 0l-402 193 462 54a23 23 0 1 1-4 47l-536-64-54 26c-14 6-17 13-17 13 0 2 3 8 17 14l536 257a156 156 0 0 0 61 12c25 0 49-4 64-12l524-255c13-6 16-13 16-16a41 41 0 0 0-16-13z" horiz-adv-x="1314" />

<glyph glyph-name="house" unicode="&#xe813;" d="M1166 454a19 19 0 0 1 32 15v104a19 19 0 0 1-8 15l-316 249a61 61 0 0 1-75 0l-119-94v37a19 19 0 0 1-19 19h-83a19 19 0 0 1-19-19v-132l-76-60a19 19 0 0 1-7-15v-104a19 19 0 0 1 31-15l10 8v-189l-181 143a61 61 0 0 1-75 0l-254-200a19 19 0 0 1-7-16v-103a19 19 0 0 1 31-15l10 8v-201h-22a19 19 0 0 1 0-39h1159a19 19 0 0 1 0 39h-22v573l10-8z m-568 306h43v-47l-43-35z m-83-196l308 242a22 22 0 0 0 27 0l309-242v-55l-310 245a19 19 0 0 1-24 0l-310-245z m-476-373l246 194a22 22 0 0 0 27 0l205-161v-54l-206 162a19 19 0 0 1-24 0l-248-195v54z m41-71l219 172 218-172v-231h-85v229a19 19 0 0 1-19 19h-228a19 19 0 0 1-19-19v-229h-86v231z m124-104h189v-44h-189z m189 38h-189v44h189z m-189-121h189v-44h-189z m562 101c-1 0-1 0-2 0a19 19 0 0 1 0-39c1 0 1 0 2 0v-106h-86v251h86z m351-145h-313v270a19 19 0 0 1-19 19h-124a19 19 0 0 1-20-19v-270h-85v604l281 221 280-221z m-229 85h125a19 19 0 0 1 19 19v166a19 19 0 0 1-19 19h-125a19 19 0 0 1-19-19v-166a19 19 0 0 1 19-19z m20 39v65h85v-65z m85 127v-24h-85v24z m-105 124h125a19 19 0 0 1 19 19v166a19 19 0 0 1-19 19h-125a19 19 0 0 1-19-19v-166a19 19 0 0 1 19-19z m20 39v64h85v-64z m85 126v-23h-85v23z m-208 39h-124a19 19 0 0 1-20-19v-166a19 19 0 0 1 20-19h124a19 19 0 0 1 19 19v166a19 19 0 0 1-19 19z m-19-39v-23h-86v23z m-86-126v64h86v-64z" horiz-adv-x="1197" />

<glyph glyph-name="instagram" unicode="&#xe814;" d="M688 850h-375a313 313 0 0 1-313-312v-375a313 313 0 0 1 313-313h375a313 313 0 0 1 312 313v375a313 313 0 0 1-312 312z m218-687a219 219 0 0 0-218-219h-375a219 219 0 0 0-219 219v375a219 219 0 0 0 219 218h375a219 219 0 0 0 218-218z m-406 437a250 250 0 1 1 250-250 250 250 0 0 1-250 250z m0-406a156 156 0 1 0 156 156 157 157 0 0 0-156-156z" horiz-adv-x="1000" />

<glyph glyph-name="law" unicode="&#xe815;" d="M889-150a66 66 0 0 0-40 34c-12 21-25 41-38 62a42 42 0 0 1-3-4 51 51 0 0 0-47-26h-705a51 51 0 0 0-56 55q0 412 0 824a50 50 0 0 0 55 55h704a50 50 0 0 0 55-55q0-188 0-376v-12l7 3a49 49 0 0 0 65-17q38-59 75-120a49 49 0 0 0-16-68c-6-4-11-7-16-10a52 52 0 0 0-69 1l-47-30c15-24 29-47 44-71l96-155a50 50 0 0 0-18-76c-9-5-19-9-29-14z m-176 254c-15-9-29-17-42-26a13 13 0 0 1-4-11 49 49 0 0 0-20-47 259 259 0 0 0-30-19 47 47 0 0 0-63 15c-27 41-52 83-77 125a43 43 0 0 0 5 54 202 202 0 0 0 52 32 44 44 0 0 0 45-12q95 60 189 119a10 10 0 0 1 4 8 59 59 0 0 0 5 33 43 43 0 0 1 4 18q1 141 0 283v122a17 17 0 0 1-19 19h-707c-16 0-22-5-22-21v-823c0-19 5-24 24-24h697a30 30 0 0 1 12 0c5 3 12 6 13 10a51 51 0 0 1-2 40c-13 22-26 44-40 66z m-116 84l53-85 192 120-53 85z m144-66c2-4 3-6 5-9q36-58 71-116 32-52 64-104a18 18 0 0 1 29-6l7 4c15 10 17 17 8 33q-69 110-137 220a54 54 0 0 1-4 5z m196 123a64 64 0 0 1-4 11q-37 60-74 120a16 16 0 0 1-23 5 255 255 0 0 1-25-15 16 16 0 0 1-4-24q36-59 73-119a16 16 0 0 1 24-6 188 188 0 0 1 23 15 56 56 0 0 1 10 14z m-392-48a103 103 0 0 1-11-4c-7-4-14-9-21-13a18 18 0 0 1-6-27c5-9 11-18 16-26 18-30 37-60 55-89a18 18 0 0 1 28-7c7 5 15 9 21 14a17 17 0 0 1 5 24c-24 40-49 80-74 119-3 5-9 7-13 10z m121 467v-32h-517v32z m0-177v-31h-517v31z m-88-176v-31h-429v31z m-429-207v31h200v-31z" horiz-adv-x="968" />

<glyph glyph-name="left-arrow" unicode="&#xe816;" d="M2215 350a58 58 0 0 1-58 57h-1961l345 345a57 57 0 1 1-81 81l-443-442a57 57 0 0 1 0-81l443-443a58 58 0 0 1 81 81l-345 345h1962a57 57 0 0 1 57 57z" horiz-adv-x="2215" />

<glyph glyph-name="medal" unicode="&#xe818;" d="M847 18l-146 257a41 41 0 0 1 23 40l-11 91 62 65c14 14 15 38 1 54l-62 68 12 91a41 41 0 0 1-31 44l-90 18-43 80a39 39 0 0 1-51 18h-1l-83-38-81 39a39 39 0 0 1-52-15l-44-80-90-16a41 41 0 0 1-33-45l11-90-62-66c-14-13-15-37-1-54l62-67-13-92a41 41 0 0 1 26-41l-147-261a20 20 0 0 1 0-20 20 20 0 0 1 16-10h158l73-125a20 20 0 0 1 16-10 19 19 0 0 1 17 10l141 241 142-244a20 20 0 0 1 16-10 19 19 0 0 1 17 10l72 128h158a19 19 0 0 1 17 10 16 16 0 0 1 1 20z m-580-106l-61 106a20 20 0 0 1-17 10h-136l136 241 57-10 43-80a39 39 0 0 1 50-19h1l41 19 20-35z m58 284h-1l-44 82a37 37 0 0 1-28 18l-90 17 12 91a39 39 0 0 1-9 33l-62 67 63 65a37 37 0 0 1 10 33l-10 89a3 3 0 0 0 1 2l89 16a40 40 0 0 1 28 20l45 80 80-40a38 38 0 0 1 36 0l82 38h1l43-82c6-10 16-18 27-19l90-18-13-90a39 39 0 0 1 10-33l62-67-63-65a37 37 0 0 1-11-33l11-91-89-15a40 40 0 0 1-27-19l-45-80-81 39a38 38 0 0 1-35 0z m335-168a19 19 0 0 1-16-10l-62-109-139 241a16 16 0 0 1-4 7l-22 39 7 3 81-40a41 41 0 0 1 53 16l44 80 59 11 136-238z m-38 474a198 198 0 1 1-198-198 198 198 0 0 1 198 198z m-198-158a158 158 0 1 0 158 158 159 159 0 0 0-158-158z" horiz-adv-x="850" />

<glyph glyph-name="phone" unicode="&#xe819;" d="M974 79l-203 135a59 59 0 0 1-79-13l-59-76a25 25 0 0 0-32-7l-11 6c-37 21-84 46-177 139s-118 140-139 177l-6 11a25 25 0 0 0 7 32l76 59a59 59 0 0 1 13 79l-135 203a59 59 0 0 1-80 18l-84-51a119 119 0 0 1-55-71c-30-111-7-303 275-585 225-225 392-285 507-285a295 295 0 0 1 78 10 119 119 0 0 1 71 55l51 84a59 59 0 0 1-18 80z m-11-63l-51-84a86 86 0 0 0-51-40c-102-28-281-5-552 267s-295 450-267 552a86 86 0 0 0 40 51l85 51a26 26 0 0 0 34-8l73-110 62-92a26 26 0 0 0-6-34l-76-59a58 58 0 0 1-15-75l6-11c21-39 48-88 144-185s146-123 185-144l11-6a58 58 0 0 1 75 15l59 76a26 26 0 0 0 34 6l202-135a26 26 0 0 0 8-35z m-396 667a284 284 0 0 0 283-283 17 17 0 0 1 33 0 317 317 0 0 1-316 317 17 17 0 1 1 0-34z m0-100a184 184 0 0 0 183-183 17 17 0 0 1 33 0 217 217 0 0 1-216 217 17 17 0 1 1 0-34z m0-100a83 83 0 0 0 83-83 17 17 0 1 1 33 0 117 117 0 0 1-116 117 17 17 0 1 1 0-34z" horiz-adv-x="1000" />

<glyph glyph-name="question" unicode="&#xe81a;" d="M479 789q83-61 83-165 0-103-87-175t-234-104v-183h-25v194q98 43 132 101t34 143q0 114-42 170t-113 55a243 243 0 0 1-64-8q-30-9-45-25 70-21 70-92a85 85 0 0 0-27-64q-28-26-72-26a87 87 0 0 0-64 25 84 84 0 0 0-25 62 103 103 0 0 0 19 62 189 189 0 0 0 53 47q74 44 188 44 136 0 219-61z m-171-771q29-26 29-71t-29-71q-29-26-78-26t-78 26q-29 25-29 71t29 71q29 26 78 26t78-26z" horiz-adv-x="561" />

<glyph glyph-name="quote" unicode="&#xe81b;" d="M552 798a26 26 0 0 1 0 52 552 552 0 0 1-552-552v-157a290 290 0 1 1 53 166 500 500 0 0 0 499 491z m420-368a289 289 0 0 1-236-123 500 500 0 0 0 499 491 26 26 0 1 1 0 52 552 552 0 0 1-552-552v-157a289 289 0 1 1 289 289z" horiz-adv-x="1261" />

<glyph glyph-name="quote-1" unicode="&#xe81c;" d="M560 410v-560h-560v568c0 384 360 432 360 432l48-112s-160-24-192-152c-32-96 32-176 32-176z m720 0v-560h-560v568c0 384 360 432 360 432l48-112s-160-24-192-152c-32-96 32-176 32-176z" horiz-adv-x="1280" />

<glyph glyph-name="right-arrow" unicode="&#xe81d;" d="M750 350l-750-500 0 1000z" horiz-adv-x="750" />

<glyph glyph-name="right-arrow-1" unicode="&#xe81e;" d="M746 409a68 68 0 0 0 0-118l-643-380a68 68 0 0 0-103 58l0 762a68 68 0 0 0 103 58z" horiz-adv-x="845" />

<glyph glyph-name="right-arrow-3" unicode="&#xe81f;" d="M0 350a58 58 0 0 0 58 57h1961l-345 345a57 57 0 0 0 81 81l443-442a57 57 0 0 0 0-81l-443-443a58 58 0 0 0-81 81l344 345h-1961a57 57 0 0 0-57 57z" horiz-adv-x="2215" />

<glyph glyph-name="search" unicode="&#xe820;" d="M988-79l-241 240a421 421 0 1 1-59-59l241-240a42 42 0 0 1 59 59z m-567 170a338 338 0 1 0 338 338 338 338 0 0 0-338-338z" horiz-adv-x="1000" />

<glyph glyph-name="suitcase" unicode="&#xe821;" d="M1056 683h-241v74a93 93 0 0 1-93 93h-333a93 93 0 0 1-93-93v-74h-240a56 56 0 0 1-56-55v-412a56 56 0 0 1 37-53v-257a56 56 0 0 1 56-56h926a56 56 0 0 1 55 56v257a56 56 0 0 1 37 53v412a56 56 0 0 1-55 55z m-723 74a56 56 0 0 0 56 56h333a56 56 0 0 0 56-56v-74h-37v74a19 19 0 0 1-19 19h-333a19 19 0 0 1-19-19v-74h-37z m371-74h-297v56h297z m333-777a19 19 0 0 0-18-19h-926a19 19 0 0 0-19 19v251l408-56v-47a56 56 0 0 1 55-56h37a56 56 0 0 1 56 56v47l407 56z m-444 148a19 19 0 0 0-19-19h-37a19 19 0 0 0-18 19v111a19 19 0 0 0 18 18h37a19 19 0 0 0 19-18z m481 162a19 19 0 0 0-16-19l-5 0-423-59v27a56 56 0 0 1-56 55h-37a56 56 0 0 1-55-55v-27l-429 59a19 19 0 0 0-16 19v412a19 19 0 0 0 19 18h1000a19 19 0 0 0 18-18z m0 0" horiz-adv-x="1111" />

<glyph glyph-name="thief" unicode="&#xe822;" d="M948 198c-27 41-59 69-93 82l56 55a21 21 0 0 1-15 36h-167a21 21 0 0 1-2 0 310 310 0 0 1 19 106c0 1 0 1 0 2l0 0a5 5 0 0 0 0 1c0 9 0 17-1 26-7 161-14 210-107 285-57 45-124 59-187 59-117 0-221-49-221-49l45-31s-163-108-122-378a3 3 0 0 1 3-3c8 0 28 15 57 38 11-57 37-112 71-157l-1-72c0-1 0-1 0-1-6-11-27-33-108-65-23-8-41-22-93-36l-3-1a114 114 0 0 1-79-108v-137h813a188 188 0 0 1 187 188c0 50-20 111-52 160z m-102 131l-33-33-33 33z m-132 6l56-55c-34-13-66-41-93-82-1-1-2-3-3-5 0 2-1 3-2 4a10 10 0 0 0 0 1l-1 72a412 412 0 0 1 42 68 19 19 0 0 1 1-3z m-9 142a248 248 0 0 0-4-44h-57a52 52 0 0 1 0 84h58a326 326 0 0 0 3-40z m-286 81c58 27 120 45 185 45q9 0 19 0l44-45z m204-83c0-8-16-21-41-21-26 0-42 13-42 21s16 21 42 21c25 0 41-12 41-21z m-104-42h-83a52 52 0 0 1 0 84h83a52 52 0 0 1 0-84z m-331 27a424 424 0 0 0 7 93 335 335 0 0 0 37 104c30 52 64 76 66 78l52 33-30 21a490 490 0 0 0 131 19c65 0 119-17 161-50 23-18 39-33 50-49a146 146 0 0 0 24-47c7-21 10-46 13-76l-47 46-11 12-16 0c-7 1-14 1-21 1a439 439 0 0 1-130-21 658 658 0 0 1-116-50c-70-37-130-83-170-114z m227 15c0-8-16-21-41-21s-42 13-42 21 16 21 42 21 41-12 41-21z m-163-19c12 9 25 18 39 28a50 50 0 0 1-1-9 55 55 0 0 1 21-42h-56c-2 8-3 15-3 23z m13-64h425a361 361 0 0 0-71-121 329 329 0 0 0-77-66c-24-14-47-22-64-22s-40 8-64 22a329 329 0 0 0-78 66 360 360 0 0 0-71 121z m388-237c-3-8-7-16-10-24a295 295 0 0 0-165-51 276 276 0 0 0-151 43 258 258 0 0 0-33 25 97 97 0 0 1 26 30c1 1 1 2 1 3l4 8 0 8 0 25c50-49 108-80 153-80s102 31 152 80l0-25 0-8 4-8c0-1 1-2 1-3a88 88 0 0 1 18-23z m-562-99l3 0a405 405 0 0 1 77 29c7 4 13 6 18 9a567 567 0 0 1 69 30c30-29 103-86 220-86a335 335 0 0 1 150 35 231 231 0 0 1-3-35 188 188 0 0 1 5-42h-588a73 73 0 0 0 49 60z m387-164h-436v62h603a188 188 0 0 1 50-62z m335 0a146 146 0 0 0-146 146c0 42 17 95 45 137 30 45 66 71 101 71s70-26 100-71c28-42 45-95 45-137a146 146 0 0 0-145-146z m20 175v33h42a21 21 0 1 1 0 42h-42v21a21 21 0 1 1-41 0v-21h-42a21 21 0 0 1-15-36l57-56v-33h-42a21 21 0 0 1 0-42h42v-21a21 21 0 0 1 41 0v21h42a21 21 0 0 1 15 36z" horiz-adv-x="1000" />

<glyph glyph-name="twitter" unicode="&#xe823;" d="M1231 732a526 526 0 0 0-146-40 251 251 0 0 1 111 139 504 504 0 0 0-160-61 252 252 0 0 1-436-172 260 260 0 0 1 6-58 714 714 0 0 0-520 264 252 252 0 0 1 77-337 249 249 0 0 0-114 31v-3a254 254 0 0 1 202-248 252 252 0 0 0-66-8 223 223 0 0 0-47 4 255 255 0 0 1 235-176 507 507 0 0 0-313-107 473 473 0 0 0-60 3 710 710 0 0 1 387-113c464 0 718 385 718 718 0 11 0 22-1 33a503 503 0 0 1 127 131z" horiz-adv-x="1231" />

<glyph glyph-name="up-arrow" unicode="&#xe824;" d="M1289-150v320l-646 680-643-680v-320l643 680z" horiz-adv-x="1289" />

<glyph glyph-name="accident" unicode="&#xe825;" d="M567 241a17 17 0 0 1-17-17v-357a17 17 0 1 1 33 0v357a17 17 0 0 1-16 17z m-90 371a17 17 0 0 1-22 0l-62-62h-60a17 17 0 0 1 0-34h125a17 17 0 1 1 0 34h-18l38 38a17 17 0 0 1-1 24z m185-302a271 271 0 0 1-101 125l-52 35a217 217 0 1 1-260-18l-23-17a730 730 0 0 1-216-243 77 77 0 0 1-10-37v-12a76 76 0 0 1 22-54 76 76 0 0 1 54-22h74v-200a17 17 0 1 1 33 0v200h150a66 66 0 0 1 66 76l23 31a775 775 0 0 1 118 222c2 4 3 7 4 10a238 238 0 0 0 87-109 255 255 0 0 0 19-95v-335a17 17 0 0 1 33 0v335a287 287 0 0 1-21 108z m-586-210a42 42 0 0 0-30 12 43 43 0 0 0-13 31v12a44 44 0 0 0 6 21 698 698 0 0 0 115 155l16-131h-53a17 17 0 0 1 0-33h56l8-67z m366 700l-112-47-65 33a182 182 0 0 0 177 14z m-205-37l53-27-95-40a184 184 0 0 0 42 67z m-52-107l292 123a184 184 0 0 0 28-26l-316-165a173 173 0 0 0-4 68z m24-116q-5 8-9 16l324 170a183 183 0 0 0-315-186z m6-440l-31 259c13 11 26 22 39 32l72-291z m142 10a33 33 0 0 0-23-10h-4l-17 67h20a34 34 0 0 0 24-57z m152 296a742 742 0 0 0-113-212l-13-17c-1 1-1 2-2 3a67 67 0 0 1-48 20h-28l-53 213 30 21a215 215 0 0 1 198 15l35-23c-1-4-3-11-6-20z" horiz-adv-x="683" />

<glyph glyph-name="avatar" unicode="&#xe826;" d="M422 311h6c61 1 110 23 146 63 80 90 67 244 65 259-5 110-57 163-100 188a230 230 0 0 1-111 29h-4a231 231 0 0 1-111-28c-44-25-97-78-102-189-2-15-15-169 65-259 36-40 85-62 146-63z m-156 317c0 0 0 1 0 2 7 148 113 164 158 164h2c56-1 151-24 158-164a4 4 0 0 1 0-2c0-2 15-142-51-217-26-29-61-43-107-44h-2c-46 1-81 15-106 44-66 74-52 216-52 217z m585-572v0c0 2-1 4-1 5-1 41-4 137-93 168-1 0-2 0-3 1-93 23-171 77-171 78a28 28 0 1 1-32-46c3-2 85-60 189-86 48-17 53-69 55-116a42 42 0 0 1 0-5 376 376 0 0 0-4-64c-34-19-166-85-366-85-199 0-331 66-365 85a356 356 0 0 0-4 64c0 2 0 3 0 5 1 47 7 99 55 116 103 26 186 84 189 86a28 28 0 0 1-32 46c-1-1-78-54-172-78-1 0-1-1-2-1-90-31-92-127-94-167a42 42 0 0 0 0-5v-1c0-11 0-66 11-94a27 27 0 0 1 10-13c7-4 156-99 405-99s398 95 404 99a28 28 0 0 1 11 13c10 28 10 83 10 94z" horiz-adv-x="851" />

<glyph glyph-name="balance" unicode="&#xe827;" d="M1066 494h-14c-14 71-87 198-119 251a57 57 0 1 1-65 0c-32-53-105-180-119-251h-14a22 22 0 0 1-22-22 188 188 0 0 1 375 0 22 22 0 0 1-22 22z m-165 313a14 14 0 1 0-15-14 14 14 0 0 0 15 14z m-1-92c37-62 94-165 108-221h-215c14 52 65 149 107 221z m1-387a144 144 0 0 0-143 122h285a144 144 0 0 0-142-122z m-164-353h-57v55a22 22 0 0 1-22 21h-55v606a82 82 0 0 1 24 54l92 20a22 22 0 1 1-9 42l-92-20a82 82 0 0 1-155-33l-229-49a57 57 0 1 1-79-81c-32-54-105-180-119-252h-14a22 22 0 0 1-22-22 188 188 0 1 1 375 0 22 22 0 0 1-22 22h-14c-14 72-87 198-119 252a58 58 0 0 1 24 39l228 49a83 83 0 0 1 15-21v-606h-55a22 22 0 0 1-21-21v-55h-58a22 22 0 0 1-21-22v-81a22 22 0 0 1 21-22h384a22 22 0 0 1 22 22v81a22 22 0 0 1-22 22z m-549 676a14 14 0 1 0-15-14 14 14 0 0 0 15 14z m0-479a144 144 0 0 0-143 123h285a144 144 0 0 0-142-123z m107 166h-215c14 53 65 149 108 221 36-61 93-165 107-221z m250 416a39 39 0 1 0-39-39 39 39 0 0 0 39 39z m15-120v-583h-29v583a81 81 0 0 1 29 0z m-106-626h182v-33h-182v33z m261-115h-340v38h340z m104 880a22 22 0 0 1-26 17l-15-4a22 22 0 1 1 9-42l15 3a22 22 0 0 1 17 26z" horiz-adv-x="1088" />

<glyph glyph-name="calendar" unicode="&#xe828;" d="M893 783h-114v50a16 16 0 0 1-16 17h-114a16 16 0 0 1-16-17v-50h-357v50a16 16 0 0 1-16 17h-114a16 16 0 0 1-16-17v-50h-114a16 16 0 0 1-16-16v-900a16 16 0 0 1 16-17h877a16 16 0 0 1 16 17v900a16 16 0 0 1-16 16z m-227 34h81v-100h-81v100z m-504 0h82v-100h-82v100z m-129-67h97v-50a16 16 0 0 1 16-17h114a16 16 0 0 1 16 17v50h357v-50a16 16 0 0 1 16-17h114a16 16 0 0 1 16 17v50h98v-150h-844z m0-867v684h844v-684z m555 538h-449v-448h631v448h-182z m-117-31h117v-108h-117z m117-247h-117v108h117z m-266 108h116v-108h-116z m0 139h116v-108h-116z m-150 0h116v-108h-116z m0-139h116v-108h-116z m116-247h-116v108h116z m150 0h-116v108h116z m149 0h-116v108h117z m150 0h-116v108h116z m0 139h-116v108h116z m0 247v-108h-116v108z" horiz-adv-x="909" />

<glyph glyph-name="linkedin" unicode="&#xe82a;" d="M13 525h225v-675h-225z m963-62q-71 78-188 78a270 270 0 0 1-78-11 177 177 0 0 1-59-29 254 254 0 0 1-65-72v96h-224l0-33q1-32 1-201t-1-441h224v377q0 35 7 55a145 145 0 0 0 44 58q29 24 72 24 58 0 86-41t27-112v-361h224v387q0 149-70 226z m-849 387q-57 0-92-33t-35-83a112 112 0 0 1 34-84q34-33 90-33h1q58 0 93 33a108 108 0 0 1 34 84q-1 50-35 83t-90 33z" horiz-adv-x="1046" />
</font>
</defs>
</svg>
